<?xml version="1.0" encoding="utf-8"?>
<!-- Generator: Adobe Illustrator 23.0.1, SVG Export Plug-In . SVG Version: 6.00 Build 0)  -->
<svg version="1.1" id="Layer_1" xmlns="http://www.w3.org/2000/svg" xmlns:xlink="http://www.w3.org/1999/xlink" x="0px" y="0px"
	 viewBox="0 0 860.3 841.9" style="enable-background:new 0 0 860.3 841.9;" xml:space="preserve">
<style type="text/css">
	.st0{fill:#FFFFFF;}
</style>
<g>
	<path class="st0" d="M181,698.9v9.6h30.1v13.7H181V733h33.1v13.7h-48.4v-61.5h48.4v13.7H181z"/>
	<path class="st0" d="M238.9,698.9h-18.7v-13.7h52.6v13.7h-18.6v47.8h-15.3L238.9,698.9L238.9,698.9z"/>
	<path class="st0" d="M336.7,685.2v61.5h-15.3v-24.5h-25.1v24.5H281v-61.5h15.3v23.3h25.1v-23.3H336.7z"/>
	<path class="st0" d="M348.4,685.2h22.5c21.1,0,36,12.7,36,30.7s-14.9,30.8-36,30.8h-22.5V685.2z M373.2,732.8
		c10.5,0,18-7.1,18-16.9s-7.5-16.8-18-16.8h-9.5v33.7H373.2z"/>
	<path class="st0" d="M431.5,698.9v9.6h30.1v13.7h-30.1V733h33.1v13.7h-48.4v-61.5h48.4v13.7H431.5z"/>
	<path class="st0" d="M474.2,685.2h15.3l26.8,36.3v-36.3h15.3v61.5h-15.3l-26.8-36.3v36.3h-15.3V685.2z"/>
	<path class="st0" d="M604.1,685.2l-24.3,61.5h-17.2l-24.3-61.5h17.2l15.7,39.8l15.7-39.8H604.1z"/>
	<path class="st0" d="M625.7,698.9v9.6h30.1v13.7h-30.1V733h33.1v13.7h-48.4v-61.5h48.4v13.7H625.7z"/>
	<path class="st0" d="M704.5,746.7L691,727.5h-7.5v19.2h-15.3v-61.5h28.5c13.5,0,23.4,8.7,23.4,21.1c0,8.9-5.1,16-13.1,19.2
		l14.9,21.1h-17.4V746.7z M683.5,713.5h11.8c5.3,0,9-2.9,9-7.2s-3.8-7.2-9-7.2h-11.8V713.5z"/>
</g>
<g>
	<g>
		<g>
			<path class="st0" d="M350,225.8c0.1,10.1-1.5,20.3-4.4,30.4c-0.4,1.5-0.2,2.7,1,3.8c1.9,1.7,3.7,3.6,5.5,5.5c1,1,1.7,1.1,2.9,0.4
				c17.7-10.1,36.7-16.9,56.9-20c42.3-6.5,81.8,1.2,118.3,23.6c2,1.2,3,1.1,4.5-0.6c1.9-2.2,4.1-4.2,6.2-6.2
				c0.9-0.9,1.3-1.8,0.9-3.1c-10.1-34.9-3-67,17.4-96.2c27.2-38.8,62.6-67.5,107-84.8c8.4-3.3,17.1-5.6,26-7c4.8-0.7,9,1.6,11.1,5.9
				s1.3,8.8-2.2,12.3c-4.5,4.5-9,9-13.4,13.5c-0.8,0.9-2.7,1.8-1.5,3.2c1,1.2,2.2-0.4,3.2-1c10.8-7.2,21.6-14.5,32.3-21.7
				c1.3-0.9,2.7-1.7,4.1-2.3c3.7-1.5,7.2-1,10.2,1.9s3.3,6.4,2.1,10.2c-0.5,1.5-1.4,2.8-2.4,4.1c-9,11.7-18,23.4-27,35
				c-0.7,0.9-2.2,2.1-1.1,3.2c1.2,1.2,2.2-0.5,3.1-1.2c12-9.1,23.9-18.3,35.9-27.5c2.4-1.9,5.1-2.8,8.2-2.3c7,1,10.1,8.4,6.2,14.8
				c-2.8,4.6-6,9-9,13.5c-4.8,7.2-9.7,14.4-14.5,21.5c-0.1,0.1-0.2,0.3-0.3,0.4c-0.5,0.8-1.3,1.7-0.3,2.4c0.8,0.6,1.5-0.1,2.1-0.8
				c1.1-1.1,2.2-2.1,3.2-3.1c3.7-3.7,7.7-7.2,11.1-11.1c3.2-3.6,9-4.2,12.8-2.1c4.2,2.3,6.3,6.9,5.5,11.9c-2.5,14-7,27.4-13.3,40.1
				c-18.6,37.8-44.9,68.9-79.7,92.6c-15.8,10.8-33.2,17.8-52.4,20.1c-14.2,1.7-28.3,0.3-42-3.7c-2.1-0.6-3.6-0.4-5,1.3
				c-1.6,2-4.9,3.4-4.9,5.6c0,2,2.6,4,4.1,6c19.5,27,30.5,57,32.5,90.3c2.1,34-5.2,65.8-21.9,95.4c-0.9,1.6-0.6,2.4,0.6,3.6
				c5,4.8,9.8,9.7,14.7,14.6c31.6,31.7,63.2,63.3,94.9,95c11.2,11.2,11.4,28.7,0.4,39.6c-11,11-28.5,10.8-39.7-0.4
				c-17.1-17.1-34.1-34.2-51.2-51.3c-18.1-18.2-36.3-36.3-54.3-54.5c-1.4-1.5-2.2-1.4-3.8-0.1c-25.6,21.6-55,35.1-88.4,39.2
				c-47.6,6-90.6-5.7-128.7-35c-1.8-1.4-2.5-0.5-3.6,0.6c-34.6,34.6-69.2,69.2-103.8,103.8c-10.2,10.2-26.2,11.1-37.3,2.1
				c-12.8-10.4-13.8-29.4-2-41.3c12.5-12.6,25.1-25.1,37.7-37.6c20.6-20.6,41.2-41.2,61.9-61.9c2.2-2.2,4.3-4.4,6.6-6.4
				c1.4-1.3,1.4-2.2,0.4-3.7c-11.1-17.6-18.8-36.5-22.6-56.9c-8.5-45-0.9-87.2,23.5-126.2c4.2-6.8,9-13.2,14.3-19.2
				c1.2-1.4,1-2.1-0.1-3.4c-2-2.3-3.9-2.7-6.9-1.9c-31,8.4-60,2.9-87.2-13.5c-18.2-11-33.8-25.1-47.9-40.9
				c-17.4-19.3-31.6-40.7-41.6-64.8c-4.1-10-7.2-20.4-9.1-31c-0.9-4.8,1.3-9.4,5.4-11.6c4.2-2.3,9-1.7,12.6,1.9
				c4.7,4.5,9.2,9.1,13.9,13.7c0.5,0.5,1.1,1.1,1.7,1.4c0.4,0.2,0.9,0.4,1.4,0c0.4-0.4,0.4-0.9,0.1-1.4c-0.3-0.6-0.7-1.1-1.1-1.7
				c-7.5-11.2-15-22.4-22.5-33.6c-1.5-2.3-2.5-4.7-2.4-7.5c0.2-3.5,1.9-6.2,5.2-7.7c3.7-1.7,7.4-1.1,10.6,1.3
				c5.4,4,10.7,8.2,16.1,12.3c6.7,5.2,13.4,10.4,20.2,15.5c0.8,0.6,1.8,2.1,2.9,1.1c1.1-1.1-0.3-2.1-0.9-3
				c-9.2-12-18.4-24.1-27.7-36.1c-2.3-3.1-3.1-6.4-1.8-10.1c2.1-5.9,8.9-7.8,14.7-4c7.6,5,15.1,10.1,22.6,15.1
				c4.1,2.7,8.2,5.5,12.2,8.2c0.8,0.5,1.7,1.3,2.4,0.5c0.8-0.9,0-1.8-0.8-2.5c-4.8-4.8-9.6-9.7-14.4-14.5c-3.3-3.3-4-8-1.8-12.2
				c2.1-4.1,6.6-6.4,11-5.7c18,3,34.8,9.4,50.7,18.2c32.9,18.2,60.5,42.3,81.9,73.2c10.8,15.7,18.2,32.8,20.8,51.8
				C349.7,215.9,350,220.7,350,225.8z M746,121.7c0.1-0.1,0.2-0.1,0.4-0.2c-0.1-0.1-0.2-0.2-0.2-0.2
				C746.1,121.4,746,121.5,746,121.7c-0.3,0-0.5,0.2-0.7,0.3c-0.7,0.5-1.4,0.9-2,1.4c-9.2,7.1-18.4,14.2-27.7,21.2
				c-4.9,3.8-11.6,3.3-16-0.9c-4.3-4.2-4.7-10.9-1.1-15.9c1.8-2.5,3.7-4.9,5.6-7.3c5.8-7.6,11.6-15.2,17.3-22.8
				c0.1-0.2,0.4-0.4,0.3-0.4c-0.2-0.4-0.4-0.1-0.7,0.1c-9.1,6.1-18.3,12.2-27.4,18.3c-3.8,2.5-7.8,3-11.9,1.3
				c-7.8-3.2-9.9-13.4-3.9-19.5c4.8-4.9,9.7-9.5,14.6-14.3c-0.2-0.2-0.3-0.4-0.5-0.6c-6.4,1.1-12.6,2.8-18.7,4.9
				c-21.7,7.4-41.2,18.9-59.1,33.2c-19.9,15.9-37.6,33.9-50.7,55.9c-8.9,14.9-14.5,31-15.3,48.5c-0.5,10.7,0.8,21.1,3.8,31.3
				c1.6,5.5,0.6,10.1-3.8,14c-1.9,1.7-3.5,3.6-5.3,5.3c-1.3,1.1-1.2,1.7,0.2,2.7c6.8,5.1,13.2,10.7,19.1,16.8c1.4,1.4,2.7,3.9,4.2,4
				c1.7,0.1,3-2.6,4.5-3.9c0.4-0.4,0.8-0.8,1.2-1.2c3.9-4.1,8.4-5.2,13.8-3.6c14.2,4.2,28.6,5.3,43.2,2.9
				c17.6-3,33.2-10.4,47.7-20.6c20.9-14.8,38.3-33.3,53.2-54.1c13.1-18.3,23.4-38.1,28.9-60.1c0.6-2.3,1.4-4.6,1.3-7.6
				c-0.9,0.9-1.5,1.4-2.1,2c-4.1,4-8.2,8.1-12.3,12.1c-3.4,3.3-7.5,4.4-11.9,3.1c-8.2-2.3-11.2-11.5-6.3-18.9c6-9,12-18,18-27
				C745.8,122.1,745.9,121.9,746,121.7z M501.2,482.5c-0.2,0.1-0.5,0.1-0.7,0.2c-18.1,11.1-36.1,22.2-54.2,33.2
				c-1.3,0.8-1.4,1.6-1.4,2.8c0,13.8,0,27.6,0,41.5c0,0.5-0.3,1.2,0.4,1.6c0.4-0.5,0.8-1,1.2-1.6c5.1-7.2,10.2-14.4,15.4-21.5
				c13.3-18.6,26.5-37.3,39.8-55.9c0.1-0.2,0.2-0.5,0.2-0.5C501.6,482.1,501.4,482.2,501.2,482.5z M508.1,426.9
				c0.2,0.2,0.4,0.3,0.6,0c-0.1-0.1-0.2-0.2-0.4-0.3c-0.4-0.7-0.7-1.5-1.1-2.2c-14-22.1-28-44.1-41.9-66.2c-2-3.2-4-6.4-6.2-9.7
				c-1.9,2.3-3.6,4.3-5.4,6.3c-3.3,3.9-6.2,3.7-8.9-0.5c-1.7-2.7-3.5-5.5-5.3-8.4c-1.9,3-3.7,5.8-5.5,8.6c-2.6,4-5.5,4.2-8.6,0.6
				c-1.8-2.1-3.6-4.2-5.6-6.5c-0.6,0.8-0.9,1.3-1.3,1.9c-11.6,18.3-23.2,36.7-34.8,55c-4.4,7-8.7,13.9-13.1,20.9
				c-0.1,0.2-0.1,0.3-0.2,0.5c0.2-0.1,0.4-0.1,0.6-0.2c0.7-0.3,1.4-0.5,2.1-0.8c20.8-8.8,41.6-17.5,62.4-26.4c2.7-1.2,5.1-1.2,7.9,0
				c8.4,3.7,16.9,7.2,25.4,10.8C481.9,415.9,495,421.4,508.1,426.9z M353.7,431c-0.5,0.2-1,0.3-1.4,0.5c-11,4.6-22.1,9.3-33.1,13.9
				c-10.5,4.4-20.9,9-31.5,13.1c-2.7,1-2.6,2-1.9,4.2c8.6,27.6,23.5,51.3,44.8,70.9c24.4,22.5,53.1,36,85.8,40.9
				c4.2,0.6,8.4,1.3,13,1.1c-0.6-0.9-1-1.5-1.5-2.1c-25.1-34.4-50.3-68.9-75.4-103.3c-2.8-3.9-3.1-6.6-1-9c2.1-2.3,4.8-2.3,8.8,0.1
				c25.6,14.9,51.2,29.7,76.8,44.6c1.5,0.9,2.6,1,4.2,0c25.9-16,51.9-31.8,77.9-47.7c1.4-0.9,2.9-1.7,4.7-1.4
				c4.2,0.6,6.4,5.4,3.1,9.8c-25.4,35.4-50.6,70.9-75.9,106.3c-0.6,0.8-1.4,1.4-1.5,2.5c0.8,0.4,1.7,0.2,2.5,0.1
				c5.6-0.4,11.1-1,16.6-2.1c61.7-13.4,103-49.9,123.9-109.5c1.4-4.1,1.3-4.1-2.5-5.7c-17.3-7.3-34.6-14.6-51.9-21.9
				c-4.4-1.8-8.7-4.1-13.4-5.3c-0.1-0.1-0.2-0.2-0.3-0.3c0,0-0.1,0.1-0.2,0.1c0.1,0.1,0.2,0.2,0.3,0.3c0.7,1.2,1.3,2.5,2.1,3.7
				c3.2,5.1,2.6,7.4-2.6,10.5c-26.8,15.8-53.6,31.6-80.3,47.5c-3.2,1.9-5.8,1.9-9,0c-12.2-7.3-24.5-14.5-36.7-21.7
				c-14.9-8.8-29.8-17.6-44.7-26.4c-3.7-2.2-4.4-5.2-2.2-8.8c0.9-1.5,1.8-3,2.7-4.5c0-0.2,0.1-0.4,0.1-0.6
				C354,430.9,353.9,430.9,353.7,431z M166.9,94c-0.2-0.4-0.5-0.5-0.8-0.3c-0.4,0.3,0.1,0.5,0.3,0.7c7.4,9.7,14.9,19.4,22.3,29.2
				c4.1,5.4,3.8,12.2-0.6,16.6c-4.5,4.4-11.1,4.6-16.6,0.4c-9.4-7.2-18.7-14.4-28.1-21.6c-0.5-0.4-0.8-1.1-1.8-0.6
				c0.5,0.8,1,1.6,1.5,2.3c5.7,8.6,11.6,17.1,17.2,25.7c4.3,6.6,1.7,15-5.4,17.9c-5.1,2-9.7,0.8-13.5-3c-4.5-4.6-9-9.3-13.7-14.1
				c-0.7,1.3-0.4,2.1-0.2,2.7c1.2,5.8,2.6,11.5,4.7,17.1c16.7,44.6,45.2,79.9,84.5,106.3c26,17.5,54.5,23.2,85.2,14
				c4.7-1.4,8.9-0.2,12.4,3.3c0.7,0.7,1.5,1.4,2.1,2.1c1,1.3,1.7,1.3,2.9,0.1c5.8-5.8,12.2-11.1,18.8-16.1c1.8-1.4,5.2-2.3,5.1-4.2
				c-0.1-1.7-2.8-3.4-4.5-5c-4.3-4-5.2-8.7-3.6-14.1c3.9-13.4,5.1-27.1,3.1-41c-2.5-17.7-9.7-33.4-19.7-48
				c-12.2-17.7-27.2-32.8-43.9-46.2c-19-15.3-39.7-27.6-63.1-35.1c-5.1-1.6-10.3-3.1-16.2-4c1.2,1.2,1.8,2,2.6,2.8c4,4,8,8,12,12.1
				c2.7,2.7,3.9,6,3.3,9.8c-1.4,9.4-11.2,13.6-19.2,8.3C184.9,106,175.9,100,166.9,94z M596.7,447.8c10.3-44.1,0.4-112-57.2-158.2
				c-55-44-133.2-46.8-191.3-6.4c-61,42.4-77.6,112.2-66,164.3c0.9-0.3,1.1-1.2,1.5-1.9c23.7-37.3,47.3-74.6,71-111.9
				c3.2-5,7.6-5,10.8-0.1c7.9,12.5,15.9,25,23.8,37.5c1.6,2.5,1.6,2.5,3.2-0.1c13.9-21.9,27.8-43.9,41.7-65.8
				c3.1-4.8,7.5-4.8,10.6,0c8,12.6,16,25.3,24.1,37.9c6.4,10,12.7,20.1,19.1,30.1c0.9-0.6,1.3-1.4,1.7-2.2
				c7.9-12.4,15.8-24.9,23.7-37.3c3.4-5.3,7.6-5.3,11,0c20.8,32.7,41.5,65.5,62.3,98.2C590,437.2,593.3,442.4,596.7,447.8z
				 M696.8,633.7c-0.1-5.7-2.2-9.7-5.8-13.3c-35.9-35.9-71.7-71.7-107.6-107.6c-1.2-1.2-1.7-1.1-2.6,0.3
				c-5.6,8.2-11.9,15.8-18.9,22.8c-1.1,1.1-1.2,1.6,0,2.7c4.2,4.1,8.3,8.4,12.5,12.6c15.7,15.7,31.5,31.4,47.2,47.2
				c10.2,10.2,20.3,20.4,30.5,30.6c5.3,5.3,10.6,10.6,15.9,15.9c5.2,5.1,12.3,6.5,18.6,3.7C693.3,645.6,696.4,640.2,696.8,633.7z
				 M189.6,635.4c0.1,1.2,0.1,2.5,0.4,3.7c1.6,6.4,5.5,10.8,11.9,12.5c6.3,1.7,11.9,0.2,16.5-4.4c13.2-13.1,26.3-26.3,39.4-39.4
				c21.3-21.3,42.7-42.6,64.1-63.9c1.2-1.2,1.5-1.8,0-3.2c-7.3-6.6-13.8-14-19.7-21.9c-0.9-1.2-1.4-1.5-2.6-0.3
				c-35.1,35.1-70.2,70.2-105.3,105.3C191.3,627,189.6,630.9,189.6,635.4z M299.4,441.5c1.5-0.6,2.2-0.8,3-1.1
				c18.1-7.6,36.3-15.3,54.4-22.9c1.5-0.6,3.1-1.3,4.6-0.7c1.7,0.7,2.2-0.2,2.9-1.3c5.4-8.6,10.5-17.4,16.4-25.6
				c3.1-4.4,3.6-7.9-0.2-11.8c-0.2-0.2-0.3-0.4-0.4-0.6c-0.5-1-1.1-1-1.8-0.1c-1.5,1.8-3,3.6-4.5,5.3c-2.7,3-5.7,2.8-8-0.6
				c-1.9-2.9-3.7-5.9-5.7-8.9c-2.1,3.2-4,6.4-6,9.4c-1.9,2.9-5,3.1-7.3,0.5c-1.5-1.7-3-3.4-4.4-5.1c-1.2-1.6-1.8-1.3-2.7,0.3
				c-7.9,12.5-15.8,25-23.7,37.5C310.5,424,305.2,432.5,299.4,441.5z M499.6,376.3c-1.5,2.4-2.9,4.6-4.3,6.7c-0.5,0.7-0.4,1.3,0,2
				c6.6,10.3,13.1,20.7,19.7,31c0.4,0.6,0.7,1.4,1.7,1c2.3-1,4.4,0,6.4,0.9c17.8,7.5,35.7,15.1,53.5,22.5c0.7,0.3,1.3,1.1,2.4,0.4
				c-13.7-21.5-27.3-43.1-40.9-64.6c-0.4,0.3-0.5,0.4-0.6,0.5c-1.6,1.8-3.1,3.7-4.7,5.5c-3.1,3.6-6,3.4-8.6-0.6
				c-1.8-2.8-3.5-5.6-5.3-8.4c-0.4,0.3-0.5,0.4-0.6,0.5c-1.8,2.7-3.5,5.5-5.2,8.2c-2.2,3.4-5.2,3.7-8,0.6
				C503.3,380.6,501.5,378.5,499.6,376.3z M445.1,412.5c0,22.4,0,44.4,0,66.6c22-13,43.8-25.9,65.8-38.9
				C488.9,431,467.1,421.8,445.1,412.5z M433.7,479.1c0-22.3,0-44.3,0-66.5c-21.9,9.3-43.7,18.4-65.7,27.7
				C390.1,453.3,411.8,466.1,433.7,479.1z M433.4,562c0.2-0.1,0.3-0.1,0.5-0.2c0-0.8,0-1.6,0-2.5c0-13.3,0-26.7,0-40
				c0-1.9-0.5-2.9-2.2-3.9c-17.9-10.3-35.7-20.6-53.5-31c-0.4-0.2-0.7-0.7-1.6-0.2C395.6,510.3,414.5,536.2,433.4,562z M429.2,345.6
				c2-3.1,3.9-6.2,5.9-9.2c2.7-4.2,6.1-4.2,8.8,0c1.9,3.1,3.9,6.1,5.9,9.2c4.5-4.7,4.5-4.7,1.2-9.8c-0.8-1.3-1.6-2.5-2.4-3.8
				c-3-4.7-6-9.4-9.2-14.4c-4,6.3-7.8,12.3-11.6,18.4C424.6,341.1,424.6,341.1,429.2,345.6z M529.1,372.8c1.1-1.3,2.2-2.5,3.2-3.7
				c0.5-0.6,0.7-1,0.2-1.8c-4.5-7.1-9-14.1-13.5-21.2c-1,0.5-1.2,1.3-1.7,2c-3.6,5.6-7.1,11.2-10.7,16.8c-2.2,3.5-2.2,3.5,0.6,6.5
				c0.1,0.1,0.1,0.1,0.1,0.2c0.7,1.1,1.2,0.8,1.8-0.2c1.8-2.9,3.6-5.8,5.5-8.6c2.3-3.5,5.9-3.5,8.2,0
				C524.9,366.2,527,369.4,529.1,372.8z M349.6,372.6c0.2-0.1,0.3-0.1,0.3-0.2c2-3.1,4-6.3,6.1-9.4c2.3-3.5,5.9-3.5,8.2,0
				c1.9,2.9,3.7,5.7,5.4,8.6c0.6,0.9,0.9,1.1,1.8,0.2c3.1-3.2,3.1-3.2,0.8-6.9c-0.5-0.8-1-1.5-1.5-2.3c-3.5-5.5-7-11-10.6-16.7
				c-4,6.2-7.7,12.2-11.5,18.1C345.7,368.5,345.7,368.5,349.6,372.6z"/>
		</g>
		<g>
			<path class="st0" d="M626.5,276.1c-13.4-0.1-25-3.8-34.8-12.5c-1.4-1.2-2.8-2.4-3.4-4.3c-0.8-2.6,0.3-5.5,2.6-6.9
				c2.4-1.4,5.3-1.1,7.5,1.1c4.7,4.6,10.2,7.7,16.6,9.2c13.5,3.1,26.5,1,38.3-5.7c22-12.6,39.2-30.1,51.1-52.6
				c1.9-3.7,5.2-5,8.4-3.4s4.2,5.1,2.3,8.8c-8.6,17-20.7,31.1-35.2,43.3c-9.3,7.8-19.1,15-30.8,19.1
				C641.8,274.6,634,275.9,626.5,276.1z"/>
		</g>
		<g>
			<path class="st0" d="M261.9,271.7c-14.3-0.1-27.3-4.3-39.2-12.2c-20.3-13.5-37-30.4-48.7-52c-0.4-0.7-0.8-1.5-1.1-2.2
				c-1.8-3.7-0.8-7.1,2.4-8.7c3.2-1.5,6.5-0.3,8.3,3.3c2.2,4.4,4.7,8.6,7.5,12.6c12,17,26.6,31.2,45.1,40.9
				c11.9,6.3,24.7,8.1,38,4.7c5.9-1.5,11-4.6,15.4-8.9c2.3-2.2,5.4-2.5,7.8-1c2.2,1.5,3.2,4.2,2.4,6.8c-0.3,1.3-1.2,2.2-2.1,3
				C288.9,267.1,276.7,271.7,261.9,271.7z"/>
		</g>
	</g>
</g>
</svg>
